<?xml version="1.0" standalone="no"?><svg xmlns="http://www.w3.org/2000/svg" viewBox="0 0 1440 320"><path fill="#6C63FF" fill-opacity="1" d="M0,128L34.3,149.3C68.6,171,137,213,206,213.3C274.3,213,343,171,411,133.3C480,96,549,64,617,58.7C685.7,53,754,75,823,96C891.4,117,960,139,1029,165.3C1097.1,192,1166,224,1234,245.3C1302.9,267,1371,277,1406,282.7L1440,288L1440,320L1405.7,320C1371.4,320,1303,320,1234,320C1165.7,320,1097,320,1029,320C960,320,891,320,823,320C754.3,320,686,320,617,320C548.6,320,480,320,411,320C342.9,320,274,320,206,320C137.1,320,69,320,34,320L0,320Z"></path></svg>